HIERARCHY
ROOT Hips
{
	OFFSET 0.000000 0.000000 0.000000
	CHANNELS 6 Xposition Yposition Zposition Zrotation Yrotation Xrotation 
	JOINT LHipJoint
	{
		OFFSET 0.000000 0.000000 0.000000
		CHANNELS 3 Zrotation Yrotation Xrotation
		JOINT LeftUpLeg
		{
			OFFSET 1.363060 -1.794630 0.839290
			CHANNELS 3 Zrotation Yrotation Xrotation
			JOINT LeftLeg
			{
				OFFSET 2.448110 -6.726130 0.000000
				CHANNELS 3 Zrotation Yrotation Xrotation
				JOINT LeftFoot
				{
					OFFSET 2.562200 -7.039590 0.000000
					CHANNELS 3 Zrotation Yrotation Xrotation
					JOINT LeftToeBase
					{
						OFFSET 0.157640 -0.433110 2.322550
						CHANNELS 3 Zrotation Yrotation Xrotation
						End Site
						{
							OFFSET 0.000000 0.000000 0.000000
						}
					}
				}
			}
		}
	}
	JOINT RHipJoint
	{
		OFFSET 0.000000 0.000000 0.000000
		CHANNELS 3 Zrotation Yrotation Xrotation
		JOINT RightUpLeg
		{
			OFFSET -1.305520 -1.794630 0.839290
			CHANNELS 3 Zrotation Yrotation Xrotation
			JOINT RightLeg
			{
				OFFSET -2.542530 -6.985550 0.000000
				CHANNELS 3 Zrotation Yrotation Xrotation
				JOINT RightFoot
				{
					OFFSET -2.568260 -7.056230 0.000000
					CHANNELS 3 Zrotation Yrotation Xrotation
					JOINT RightToeBase
					{
						OFFSET -0.164730 -0.452590 2.363150
						CHANNELS 3 Zrotation Yrotation Xrotation
						End Site
						{
							OFFSET 0.000000 0.000000 0.000000
						}
					}
				}
			}
		}
	}
}
MOTION
Frames: 25
Frame Time: 0.008333
5.327510 15.484707 1.469136 0.498895 60.954763 27.617116 -8.507862 -0.544716 -5.599488 -16.064327 9.407313 -51.792391 -1.817196 4.462243 63.049948 3.350309 12.012513 -30.824422 -5.335700 0.000000 -39.119200 11.847058 2.960728 -4.076019 6.310352 -3.840233 -57.412775 -2.031904 -6.981733 85.503895 -1.373598 -4.560191 -20.216715 1.029200 -0.000000 -42.423600
5.462037 15.556485 1.542363 0.475873 60.695863 27.453580 -8.544068 -0.469715 -5.686152 -15.843708 9.811391 -50.326999 -1.890870 4.335872 61.864209 3.298531 12.032249 -30.209012 -5.202400 0.000000 -40.193300 11.700829 3.015639 -3.954628 6.768190 -3.471162 -58.154955 -1.810298 -6.897796 83.979047 -1.394627 -4.487555 -20.280053 1.031301 -0.000000 -43.011600
5.598857 15.634766 1.619126 0.460787 60.401990 27.318085 -8.578345 -0.390832 -5.753813 -15.608188 10.188845 -48.826317 -1.960711 4.196479 60.559141 3.235505 12.033114 -29.440204 -5.024200 0.000001 -41.336600 11.551897 3.052979 -3.818107 7.225216 -3.086294 -58.814120 -1.575298 -6.797471 82.268591 -1.426508 -4.472839 -20.275754 1.037000 0.000000 -43.611800
5.738423 15.718742 1.699127 0.443080 60.078386 27.206509 -8.613515 -0.308459 -5.798696 -15.355635 10.533222 -47.317026 -2.023378 4.048049 59.163822 3.161992 12.016858 -28.520712 -4.802700 0.000000 -42.569300 11.398357 3.071420 -3.666193 7.690429 -2.689248 -59.390754 -1.329597 -6.679826 80.376379 -1.468519 -4.512446 -20.194648 1.044100 0.000000 -44.189201
5.880974 15.807529 1.782208 0.416471 59.730942 27.117659 -8.651995 -0.222770 -5.819287 -15.086245 10.843380 -45.825861 -2.076165 3.895116 57.709499 3.078175 11.982790 -27.450845 -4.538200 0.000000 -43.920100 11.239003 3.069846 -3.498874 8.171213 -2.282946 -59.884685 -1.075539 -6.544283 78.305089 -1.518979 -4.597458 -20.028506 1.048900 -0.000000 -44.712200
6.026660 15.900351 1.868147 0.374731 59.365422 27.047576 -8.696444 -0.133818 -5.816790 -14.799841 11.126262 -44.375149 -2.117634 3.742584 56.225020 2.983371 11.925830 -26.229131 -4.230201 -0.000000 -45.420000 11.072817 3.047193 -3.317600 8.675058 -1.871702 -60.291156 -0.814377 -6.390366 76.054419 -1.575106 -4.712679 -19.772654 1.046700 0.000000 -45.149700
6.175167 15.996142 1.956968 0.324887 58.990216 27.007350 -8.746586 -0.041376 -5.793600 -14.504888 11.384107 -42.990797 -2.146568 3.594531 54.740493 2.877387 11.841288 -24.853165 -3.879000 -0.000000 -47.098501 10.901171 3.004154 -3.121731 9.198390 -1.455848 -60.615446 -0.548164 -6.218746 73.627399 -1.633906 -4.843349 -19.421190 1.032600 0.000000 -45.501700
6.326451 16.094234 2.048515 0.264157 58.610347 26.987677 -8.805112 0.054948 -5.755625 -14.199493 11.636935 -41.677671 -2.164231 3.455237 53.273670 2.758128 11.714666 -23.320710 -3.484001 0.000000 -48.971200 10.724122 2.939844 -2.915958 9.747991 -1.044804 -60.841620 -0.276049 -6.029063 71.020286 -1.691067 -4.967120 -18.978579 1.002201 0.000000 -45.745301
6.480093 16.193734 2.142815 0.199747 58.232767 26.991867 -8.872155 0.155670 -5.708619 -13.888092 11.897325 -40.442102 -2.171948 3.327675 51.840849 2.624642 11.533422 -21.632033 -3.048100 0.000000 -51.039300 10.543599 2.855153 -2.702726 10.321503 -0.644308 -60.964808 0.001846 -5.821703 68.234646 -1.742726 -5.066745 -18.447395 0.952500 0.000000 -45.893700
6.635733 16.293742 2.239769 0.137393 57.863820 27.018731 -8.947883 0.261063 -5.658713 -13.572267 12.178219 -39.281100 -2.171768 3.213808 50.450625 2.476405 11.284028 -19.791022 -2.577701 -0.000000 -53.282300 10.361589 2.751215 -2.485802 10.918099 -0.263170 -60.978215 0.286207 -5.596881 65.272866 -1.785047 -5.126791 -17.833327 0.881900 -0.000000 -45.968301
6.792993 16.393337 2.339230 0.082088 57.509696 27.065247 -9.032413 0.371065 -5.611116 -13.251457 12.489319 -38.186965 -2.165991 3.114689 49.107082 2.314098 10.955183 -17.808098 -2.083501 -0.000000 -55.658500 10.179986 2.629552 -2.269231 11.538539 0.088596 -60.876396 0.577767 -5.354447 62.140726 -1.814860 -5.137775 -17.141459 0.790700 0.000000 -46.006400
6.951572 16.491584 2.440997 0.035330 57.175562 27.126260 -9.125947 0.485151 -5.569407 -12.922588 12.835173 -37.148704 -2.156773 3.030372 47.810840 2.139810 10.539025 -15.700516 -1.581200 0.000000 -58.106800 10.000353 2.491956 -2.056745 12.185336 0.401016 -60.657457 0.877174 -5.093855 58.847755 -1.830005 -5.097650 -16.374932 0.680800 -0.000000 -46.060600
7.111292 16.587510 2.544736 -0.004264 56.865938 27.195181 -9.228800 0.602105 -5.535110 -12.580180 13.214166 -36.155930 -2.145832 2.960228 46.562298 1.957278 10.033329 -13.493451 -1.089500 0.000000 -60.553700 9.823717 2.340402 -1.851648 12.864032 0.664805 -60.324228 1.184695 -4.814165 55.408147 -1.829589 -5.012807 -15.533070 0.554500 0.000000 -46.197100
7.272057 16.680114 2.650038 -0.041281 56.584592 27.264647 -9.341412 0.720137 -5.507653 -12.216991 13.618373 -35.199995 -2.134336 2.903051 45.362771 1.771566 9.441484 -11.219301 -0.628900 0.000001 -62.922900 9.650675 2.177137 -1.656737 13.581794 0.871751 -59.883953 1.499961 -4.514195 51.841423 -1.814174 -4.898231 -14.610987 0.414200 -0.000000 -46.490900
7.433861 16.768468 2.756345 -0.087738 56.332451 27.321077 -9.465019 0.836711 -5.485341 -11.821789 14.039086 -34.274303 -2.123083 2.857668 44.216521 1.588544 8.772248 -8.918125 -0.219400 -0.000000 -65.140100 9.480757 2.004080 -1.474838 14.350785 1.016555 -59.344347 1.821923 -4.192518 48.172249 -1.785963 -4.777342 -13.600610 0.261500 0.000000 -47.009301
7.596675 16.851544 2.863299 -0.137622 56.115607 27.376171 -9.597387 0.949922 -5.462440 -11.397995 14.445443 -33.384343 -2.110928 2.821574 43.134503 1.414583 8.041923 -6.626805 0.123900 -0.000001 -67.159500 9.316186 1.825245 -1.305715 15.167376 1.092203 -58.733058 2.147970 -3.849670 44.433887 -1.747907 -4.676091 -12.489893 0.095700 -0.000000 -47.825600
7.760534 16.928560 2.970253 -0.211998 55.929987 27.407303 -9.740560 1.056650 -5.436720 -10.930540 14.831481 -32.527163 -2.098103 2.794220 42.127929 1.254954 7.267194 -4.393432 0.389600 -0.000000 -68.932100 9.155199 1.642310 -1.153231 16.048258 1.098301 -58.055389 2.475447 -3.485434 40.663430 -1.704764 -4.626261 -11.273032 -0.085000 0.000000 -48.943800
7.925348 16.998703 3.076859 -0.309327 55.777073 27.419580 -9.892570 1.155105 -5.403391 -10.421949 15.173067 -31.710196 -2.083146 2.774063 41.213878 1.113985 6.469489 -2.256906 0.574199 -0.000000 -70.442100 8.999255 1.459333 -1.018977 16.989782 1.031645 -57.334276 2.800058 -3.102916 36.908488 -1.661219 -4.654730 -9.948392 -0.284400 -0.000000 -50.342300
8.090974 17.061282 3.182791 -0.427901 55.655591 27.414987 -10.051234 1.244119 -5.358931 -9.876382 15.451128 -30.939326 -2.064518 2.760149 40.410815 0.994243 5.670343 -0.252156 0.680500 0.000000 -71.686000 8.849642 1.280384 -0.905939 17.985848 0.890169 -56.589240 3.116751 -2.707465 33.224491 -1.621996 -4.782707 -8.525092 -0.507800 -0.000001 -51.942100
8.257152 17.115636 3.287913 -0.558621 55.564222 27.400326 -10.213420 1.323700 -5.300956 -9.303419 15.649842 -30.219421 -2.040610 2.751878 39.737753 0.896515 4.890389 1.593366 0.717101 0.000000 -72.671201 8.708272 1.109773 -0.817913 19.022710 0.670933 -55.840161 3.419686 -2.307391 29.675501 -1.591066 -5.020996 -7.025345 -0.759500 0.000001 -53.622300
8.423489 17.161246 3.392282 -0.686475 55.500602 27.386108 -10.375203 1.394876 -5.228392 -8.717314 15.756601 -29.554524 -2.009835 2.749036 39.212664 0.819987 4.147513 3.262573 0.696201 0.000000 -73.415600 8.577318 0.951685 -0.758834 20.079131 0.373020 -55.107620 3.702326 -1.913625 26.331867 -1.571725 -5.369870 -5.485444 -1.041900 0.000000 -55.238200
8.589551 17.197611 3.496067 -0.788962 55.462590 27.387170 -10.532161 1.460039 -5.141165 -8.137042 15.761167 -28.944823 -1.970871 2.751555 38.850367 0.762715 3.456669 4.746675 0.632300 -0.000000 -73.912600 8.459325 0.809720 -0.733491 21.129132 -0.008154 -54.411935 3.958822 -1.539079 23.264738 -1.565103 -5.813003 -3.954393 -1.352400 -0.000001 -56.653100
8.754828 17.224274 3.599617 -0.843804 55.445898 27.419843 -10.680233 1.521690 -5.040790 -7.582404 15.661298 -28.394131 -1.922956 2.759909 38.664276 0.721866 2.826503 6.047655 0.538999 -0.000000 -74.201100 8.355847 0.686313 -0.742039 22.138600 -0.461422 -53.774958 4.182272 -1.196777 20.545076 -1.573955 -6.334111 -2.494682 -1.683600 0.000000 -57.724099
8.918873 17.240810 3.703283 -0.828285 55.446759 27.500748 -10.815875 1.582777 -4.929481 -7.073398 15.456960 -27.903008 -1.865813 2.774598 38.663661 0.694435 2.262288 7.171610 0.428900 -0.000000 -74.250000 8.268112 0.582963 -0.784201 23.073931 -0.977831 -53.213894 4.368220 -0.898191 18.229115 -1.598983 -6.904431 -1.174093 -2.021500 -0.000000 -58.359400
9.081328 17.246840 3.807488 -0.724334 55.460086 27.646012 -10.936477 1.645381 -4.810558 -6.627556 15.155116 -27.476758 -1.799809 2.796365 38.855719 0.677401 1.764504 8.129256 0.311900 0.000000 -74.060400 8.196059 0.500586 -0.853464 23.896786 -1.529741 -52.744959 4.511983 -0.651723 16.361686 -1.643624 -7.504618 -0.065667 -2.349000 -0.000000 -58.471800
